<?xml version="1.0" encoding="UTF-8" standalone="no"?>
<!-- Created with Inkscape (http://www.inkscape.org/) -->

<svg
   xmlns:dc="http://purl.org/dc/elements/1.1/"
   xmlns:cc="http://creativecommons.org/ns#"
   xmlns:rdf="http://www.w3.org/1999/02/22-rdf-syntax-ns#"
   xmlns:svg="http://www.w3.org/2000/svg"
   xmlns="http://www.w3.org/2000/svg"
   xmlns:sodipodi="http://sodipodi.sourceforge.net/DTD/sodipodi-0.dtd"
   xmlns:inkscape="http://www.inkscape.org/namespaces/inkscape"
   width="500"
   height="500"
   id="svg2"
   version="1.1"
   inkscape:version="0.47 r22583"
   sodipodi:docname="ghentfpg.svg"
   inkscape:export-filename="/home/jasper/Desktop/ghentfpg.png"
   inkscape:export-xdpi="92.160004"
   inkscape:export-ydpi="92.160004">
  <defs
     id="defs4">
    <inkscape:perspective
       sodipodi:type="inkscape:persp3d"
       inkscape:vp_x="0 : 526.18109 : 1"
       inkscape:vp_y="0 : 1000 : 0"
       inkscape:vp_z="744.09448 : 526.18109 : 1"
       inkscape:persp3d-origin="372.04724 : 350.78739 : 1"
       id="perspective10" />
    <inkscape:perspective
       id="perspective2865"
       inkscape:persp3d-origin="0.5 : 0.33333333 : 1"
       inkscape:vp_z="1 : 0.5 : 1"
       inkscape:vp_y="0 : 1000 : 0"
       inkscape:vp_x="0 : 0.5 : 1"
       sodipodi:type="inkscape:persp3d" />
    <inkscape:perspective
       id="perspective2990"
       inkscape:persp3d-origin="0.5 : 0.33333333 : 1"
       inkscape:vp_z="1 : 0.5 : 1"
       inkscape:vp_y="0 : 1000 : 0"
       inkscape:vp_x="0 : 0.5 : 1"
       sodipodi:type="inkscape:persp3d" />
  </defs>
  <sodipodi:namedview
     id="base"
     pagecolor="#ffffff"
     bordercolor="#666666"
     borderopacity="1.0"
     inkscape:pageopacity="0.0"
     inkscape:pageshadow="2"
     inkscape:zoom="0.67518227"
     inkscape:cx="409.69849"
     inkscape:cy="221.86184"
     inkscape:document-units="px"
     inkscape:current-layer="layer1"
     showgrid="false"
     inkscape:window-width="1262"
     inkscape:window-height="766"
     inkscape:window-x="7"
     inkscape:window-y="23"
     inkscape:window-maximized="0"
     inkscape:object-paths="true"
     inkscape:snap-smooth-nodes="true"
     inkscape:snap-midpoints="true"
     inkscape:object-nodes="true"
     inkscape:snap-intersection-paths="true"
     inkscape:snap-global="false"
     showguides="true"
     inkscape:guide-bbox="true" />
  <metadata
     id="metadata7">
    <rdf:RDF>
      <cc:Work
         rdf:about="">
        <dc:format>image/svg+xml</dc:format>
        <dc:type
           rdf:resource="http://purl.org/dc/dcmitype/StillImage" />
        <dc:title></dc:title>
      </cc:Work>
    </rdf:RDF>
  </metadata>
  <g
     inkscape:label="Layer 1"
     inkscape:groupmode="layer"
     id="layer1"
     style="display:inline"
     transform="translate(-134.77715,-181.79938)">
    <path
       style="fill:#8b0000;stroke:none"
       d="m 356.59404,399.66003 c 1.68063,62.18344 -32.91151,88.62665 -142.85385,150.4167 64.70439,10.92412 90.38534,33.75206 90.38534,33.75206 0,0 82.71991,-52.23902 92.80371,-95.09518"
       id="path2899"
       sodipodi:nodetypes="cccc" />
    <path
       style="fill:#8b0000"
       d="M 501.96883,572.76528 C 350.71181,496.29646 360.79562,429.07112 343.14897,368.56831 325.50232,308.06551 231.38684,205.54686 231.38684,205.54686 c 0,0 145.37479,89.07358 183.18905,180.66811 37.81425,91.59452 161.34082,132.77004 161.34082,132.77004"
       id="path2897" />
    <path
       sodipodi:nodetypes="csscsccccc"
       id="path3094"
       d="m 394.0131,380.28751 c 13.94847,15.47666 44.26127,15.57715 46.88683,17.79591 2.62552,2.21878 -2.14242,13.6387 14.84199,33.52555 16.98439,19.88688 24.27973,24.68002 27.41838,30.63109 -8.99642,-5.83247 -6.74465,7.73659 -7.67465,13.06539 -0.93,5.32879 -12.00614,68.48937 -26.97145,101.72509 -4.42883,-33.43108 1.18601,-55.25935 -6.0136,-54.58512 9.12662,-24.87234 0.26595,-33.38754 -4.65799,-34.97395 12.58325,-25.97412 -4.50179,-33.40304 -4.50179,-33.40304 -4.94384,-32.72475 -70.80756,-67.06898 -70.80756,-67.06898"
       style="fill:#000000;fill-opacity:1;stroke:#ffffff;stroke-width:1.24780679;stroke-linecap:butt;stroke-linejoin:miter;stroke-opacity:1" />
    <path
       id="path3039"
       style="fill:#000000;fill-opacity:1;stroke:#ffffff;stroke-width:1.24780679;stroke-linecap:butt;stroke-linejoin:miter;stroke-opacity:1"
       d="m 513.01943,561.47698 c 4.07291,-6.57932 3.75961,-8.14584 3.75961,-8.14584 0,0 -3.44631,2.50641 -5.95273,2.50641 m 14.41187,15.66508 c 1.87981,-7.20593 0.31331,-10.02565 0.31331,-10.02565 0,0 -3.75962,7.20593 -5.01283,7.51923 -1.25321,0.31331 -2.50641,-1.2532 -2.50641,-1.2532 0,0 3.75962,-3.13302 3.44631,-7.83253 0,0 -4.38622,4.38622 -6.57933,4.69951 m 8.45914,-19.42468 c -7.51923,5.32612 -7.51923,2.81972 -7.51923,2.81972 l 2.81971,-5.95273 m 22.5577,12.53205 c -4.38622,6.57932 -9.08574,5.63942 -9.08574,5.63942 l 2.19311,-8.77243 c 0,0 -3.44633,5.95272 -5.95273,5.95272 l 2.81971,-8.77244 c 0,0 -4.07291,6.26604 -6.26602,5.95273 l 2.50641,-7.83253" />
    <path
       style="fill:none;stroke:#ffffff;stroke-width:1.24780679;stroke-linecap:butt;stroke-linejoin:miter;stroke-opacity:1"
       d="m 449.64939,474.4562 c 7.83779,-2.86266 21.5539,-13.35906 21.5539,-13.35906"
       id="path3100" />
    <path
       id="path3102"
       d="m 447.46878,472.19426 c 6.40069,-2.18243 17.6019,-10.18467 17.6019,-10.18467"
       style="fill:none;stroke:#ffffff;stroke-width:1.24780679;stroke-linecap:butt;stroke-linejoin:miter;stroke-opacity:1" />
    <path
       id="path3106"
       d="m 465.69494,455.12206 c -6.89289,-2.9468 -37.00395,-8.18557 -37.00395,-8.18557"
       style="fill:none;stroke:#ffffff;stroke-width:1.24780679;stroke-linecap:butt;stroke-linejoin:miter;stroke-opacity:1" />
    <path
       id="path3010"
       style="fill:#000000;fill-opacity:1;stroke:#ffffff;stroke-width:1.24780679;stroke-linecap:butt;stroke-linejoin:miter;stroke-opacity:1"
       d="M 481.00891,535.91972 C 417.56584,508.43281 391.75037,453.03795 365.5952,395.25843 339.44002,337.47892 353.64677,282.41671 259.38415,202.16384 c 107.24014,51.95353 104.3622,112.10455 131.57229,168.7097 27.21007,56.60516 59.95499,117.77996 97.64466,129.28111"
       sodipodi:nodetypes="czczc" />
    <path
       sodipodi:nodetypes="cccc"
       id="path2886"
       d="m 469.91104,501.38783 c -10.84502,21.54968 16.00351,8.80775 15.51938,-6.55758 -0.48413,-15.36532 -13.87313,-35.85744 -13.87313,-35.85744 0,0 9.19875,20.86535 -1.64625,42.41502 z"
       style="fill:#000000;fill-opacity:1;stroke:#ffffff;stroke-width:1.08167243;stroke-linecap:butt;stroke-linejoin:miter;stroke-opacity:1" />
    <path
       style="fill:#000000;fill-opacity:1;stroke:#ffffff;stroke-width:1.37563443;stroke-linecap:butt;stroke-linejoin:miter;stroke-opacity:1"
       d="m 477.52741,511.77228 c -18.01426,1.96519 -40.28643,-4.25792 -48.47473,-7.2057 21.28957,24.89242 62.23108,36.68358 62.23108,36.68358"
       id="path2888" />
    <path
       style="fill:#000000;fill-opacity:1;stroke:#ffffff;stroke-width:1.24780679;stroke-opacity:1"
       d="m 478.13205,520.71986 c 0,0 26.606,-1.36054 30.172,17.42109 3.566,18.78162 10.54663,30.33375 15.12896,31.16747 4.58233,0.83373 11.9764,-0.5414 11.9764,-0.5414 -17.15018,11.55294 -17.9625,18.19557 -21.25597,29.05654 4.41493,-17.55446 -2.15483,-28.53916 -5.44373,-32.12575 -3.28887,-3.58663 -2.92287,-6.18694 -5.10831,-7.89125 -2.18545,-1.7043 -18.0376,-7.35181 -22.8442,-24.02428 -4.8066,-16.67246 -2.62515,-13.06242 -2.62515,-13.06242 z"
       id="path2873"
       sodipodi:nodetypes="ccsccsszc" />
    <path
       style="fill:#000000;fill-opacity:1;stroke:#ffffff;stroke-width:1.24780679;stroke-linecap:butt;stroke-linejoin:miter;stroke-opacity:1"
       d="m 479.50029,496.83408 c -15.90243,22.83912 16.83804,12.67059 18.79329,-4.95538 1.95526,-17.62597 -9.98977,-43.21314 -9.98977,-43.21314 0,0 7.09891,25.32941 -8.80352,48.16852 z"
       id="path2881"
       sodipodi:nodetypes="cccc" />
    <path
       style="fill:#000000;fill-opacity:1;stroke:#ffffff;stroke-width:1.24780679;stroke-opacity:1"
       d="m 481.74312,501.3431 c -7.32844,6.19186 -3.81721,9.01172 -8.5399,17.97835 10.00249,0.0375 28.68934,12.17456 29.78107,13.50315 2.18344,2.65718 12.00725,9.2964 17.53644,12.99072 5.52919,3.69434 16.72073,8.99727 18.31531,10.00499 1.59459,1.00773 7.22549,5.32035 1.96142,22.53824 6.04236,-7.66179 12.68958,-21.29707 8.83385,-37.01464 0,0 0.0194,3.01317 -3.15432,5.91661 -3.17376,2.90346 -7.09234,-7.40608 -7.08835,-9.31182 0.004,-1.90573 6.64123,-10.77667 5.7338,-20.15277 -0.65172,3.7586 -5.22464,10.70239 -8.4981,12.03469 -3.27346,1.33229 -3.78402,-0.80632 -4.24375,-2.63574 -0.45971,-1.82946 1.70231,-1.23259 0.68517,-7.41551 0,0 -0.72401,1.38916 -1.91375,3.80745 -1.18973,2.41833 -7.56808,-1.61258 -17.52243,-19.66078 -4.74891,4.9089 -9.46768,-0.38464 -5.58231,-9.8017 3.88536,-9.41708 4.67081,-28.37366 -0.41147,-36.65161 -0.91283,18.40631 -6.3745,27.5639 -10.52427,31.02175 -4.14978,3.45785 -7.91747,8.92401 -15.36841,12.84862 z"
       id="path2871"
       sodipodi:nodetypes="cccssccsscsscscscsc" />
    <path
       style="fill-opacity:1;stroke:#ffffff;stroke-width:1.24780679;stroke-linecap:butt;stroke-linejoin:miter;stroke-opacity:1"
       d="m 498.08798,509.81664 c 7.7735,1.89632 9.73951,9.98698 9.73951,9.98698 0,0 1.65546,-3.44747 2.71205,-3.78003 -5.57805,-4.95635 -5.98291,-8.38239 -5.98291,-8.38239 -1.93516,1.74717 -6.46865,2.17544 -6.46865,2.17544 z"
       id="path2875" />
    <path
       style="fill:#000000;fill-opacity:1;stroke:#ffffff;stroke-width:1.24780679;stroke-linecap:butt;stroke-linejoin:miter;stroke-opacity:1"
       d="m 384.74064,407.93664 c -4.64349,23.28427 13.94896,58.76691 13.66892,62.83667 -0.28008,4.06975 -16.34764,-1.39742 -22.89284,27.42438 -6.54519,28.8218 -8.79852,53.28195 -13.32158,62.38469 -0.79462,-18.83923 -15.43847,-6.30051 -22.79133,-4.41571 -7.35287,1.88478 -91.18994,29.17741 -145.14231,25.5795 37.06712,-29.01795 68.78065,-33.71428 61.59707,-45.33968 38.54562,-0.77997 41.15919,-21.12498 38.75596,-30.39861 42.94825,4.29884 36.96831,-29.12208 36.96831,-29.12208 35.74662,-29.42437 32.7657,-102.46882 32.7657,-102.46882"
       id="path2996"
       sodipodi:nodetypes="csscsccccc" />
    <path
       style="fill:none;stroke:#ffffff;stroke-width:1.24780679;stroke-linecap:butt;stroke-linejoin:miter;stroke-opacity:1"
       d="m 407.85336,393.35766 c 15.96601,6.72253 28.99093,7.14269 28.99093,7.14269 5.96582,20.79451 10.35406,31.11601 28.99093,46.63758"
       id="path3096"
       sodipodi:nodetypes="ccc" />
    <path
       style="fill:none;stroke:#ffffff;stroke-width:1.24780679;stroke-linecap:butt;stroke-linejoin:miter;stroke-opacity:1"
       d="m 475.0787,458.4822 c -4.20159,2.52096 -1.96593,10.0828 -2.94111,15.12571 -0.70401,3.64064 -2.10079,10.92412 -2.10079,10.92412"
       id="path3098"
       sodipodi:nodetypes="cac" />
    <g
       style="font-size:81.14761353px;font-style:normal;font-variant:normal;font-weight:normal;font-stretch:normal;text-align:start;line-height:125%;writing-mode:lr-tb;text-anchor:start;fill:#000000;fill-opacity:1;stroke:none;font-family:Sapir;-inkscape-font-specification:Sapir"
       id="text2843"
       transform="matrix(0.83187114,0,0,0.83187114,80.129818,88.965276)" />
    <flowRoot
       xml:space="preserve"
       id="flowRoot2847"
       style="font-size:40px;font-style:normal;font-weight:normal;fill:#000000;fill-opacity:1;stroke:none;font-family:Helvetica LT CondensedLight;-inkscape-font-specification:Helvetica LT CondensedLight"
       transform="matrix(0.83187114,0,0,0.83187114,80.129818,88.965276)"><flowRegion
         id="flowRegion2849"><rect
           id="rect2851"
           width="598.01031"
           height="122.22845"
           x="52.527931"
           y="594.76306" /></flowRegion><flowPara
         id="flowPara2853" /></flowRoot>    <g
       id="g2912"
       transform="translate(5.2437713,-5.9243262)">
      <text
         sodipodi:linespacing="125%"
         id="text2904"
         y="659.85669"
         x="166.89543"
         style="font-size:73.01508331px;font-style:normal;font-variant:normal;font-weight:bold;font-stretch:normal;text-align:start;line-height:125%;writing-mode:lr-tb;text-anchor:start;fill:#000000;fill-opacity:1;stroke:none;font-family:Nevis;-inkscape-font-specification:Nevis Bold"
         xml:space="preserve"><tspan
           y="659.85669"
           x="166.89543"
           id="tspan2906"
           sodipodi:role="line">GHENT</tspan></text>
      <text
         xml:space="preserve"
         style="font-size:73.01508331px;font-style:normal;font-variant:normal;font-weight:bold;font-stretch:normal;text-align:start;line-height:125%;writing-mode:lr-tb;text-anchor:start;fill:#8b0000;fill-opacity:1;stroke:none;font-family:Nevis;-inkscape-font-specification:Nevis Bold"
         x="447.56723"
         y="659.85669"
         id="text2908"
         sodipodi:linespacing="125%"><tspan
           sodipodi:role="line"
           id="tspan2910"
           x="447.56723"
           y="659.85669">FPG</tspan></text>
    </g>
  </g>
</svg>
