<?xml version="1.0" encoding="UTF-8" standalone="no"?>
<!-- Created with Inkscape (http://www.inkscape.org/) -->

<svg
   xmlns:dc="http://purl.org/dc/elements/1.1/"
   xmlns:cc="http://creativecommons.org/ns#"
   xmlns:rdf="http://www.w3.org/1999/02/22-rdf-syntax-ns#"
   xmlns:svg="http://www.w3.org/2000/svg"
   xmlns="http://www.w3.org/2000/svg"
   xmlns:sodipodi="http://sodipodi.sourceforge.net/DTD/sodipodi-0.dtd"
   xmlns:inkscape="http://www.inkscape.org/namespaces/inkscape"
   width="297mm"
   height="420mm"
   viewBox="0 0 1052.3622 1488.189"
   id="svg3444"
   version="1.1"
   inkscape:version="0.91 r13725"
   sodipodi:docname="haskell.svg"
   inkscape:export-filename="/home/felix/Temporary/haskell.png"
   inkscape:export-xdpi="50.013809"
   inkscape:export-ydpi="50.013809">
  <defs
     id="defs3446">
    <clipPath
       id="clipPath3505"
       clipPathUnits="userSpaceOnUse">
      <path
         inkscape:connector-curvature="0"
         id="path3507"
         d="m 0,446.264 719.68,0 L 719.68,0 0,0 0,446.264 Z" />
    </clipPath>
  </defs>
  <sodipodi:namedview
     id="base"
     pagecolor="#ffffff"
     bordercolor="#666666"
     borderopacity="1.0"
     inkscape:pageopacity="0"
     inkscape:pageshadow="2"
     inkscape:zoom="0.5"
     inkscape:cx="672.44646"
     inkscape:cy="695.79665"
     inkscape:document-units="px"
     inkscape:current-layer="layer1"
     showgrid="false"
     inkscape:window-width="1434"
     inkscape:window-height="878"
     inkscape:window-x="1366"
     inkscape:window-y="16"
     inkscape:window-maximized="0"
     showguides="true"
     inkscape:guide-bbox="true" />
  <metadata
     id="metadata3449">
    <rdf:RDF>
      <cc:Work
         rdf:about="">
        <dc:format>image/svg+xml</dc:format>
        <dc:type
           rdf:resource="http://purl.org/dc/dcmitype/StillImage" />
        <dc:title></dc:title>
      </cc:Work>
    </rdf:RDF>
  </metadata>
  <g
     inkscape:label="Layer 1"
     inkscape:groupmode="layer"
     id="layer1"
     transform="translate(0,435.82677)">
    <g
       style="font-style:normal;font-variant:normal;font-weight:normal;font-stretch:normal;font-size:81.14761353px;line-height:125%;font-family:Sapir;-inkscape-font-specification:Sapir;text-align:start;writing-mode:lr-tb;text-anchor:start;fill:#000000;fill-opacity:1;stroke:none"
       id="text2843"
       transform="matrix(1.6754952,0,0,1.6754952,-104.5079,-604.04242)" />
    <flowRoot
       xml:space="preserve"
       id="flowRoot2847"
       style="font-style:normal;font-weight:normal;font-size:67.01980591px;font-family:'Helvetica LT CondensedLight';-inkscape-font-specification:'Helvetica LT CondensedLight';fill:#000000;fill-opacity:1;stroke:none"><flowRegion
         id="flowRegion2849"><rect
           id="rect2851"
           width="1001.9634"
           height="204.79318"
           x="-16.497602"
           y="392.48022" /></flowRegion><flowPara
         id="flowPara2853" /></flowRoot>    <flowRoot
       xml:space="preserve"
       id="flowRoot3378"
       style="fill:black;stroke:none;stroke-opacity:1;stroke-width:1px;stroke-linejoin:miter;stroke-linecap:butt;fill-opacity:1;font-family:Nevis;font-style:normal;font-weight:normal;font-size:22.5px;line-height:125%;letter-spacing:0px;word-spacing:0px;-inkscape-font-specification:'Nevis, Normal';font-stretch:normal;font-variant:normal;text-anchor:start;text-align:start;writing-mode:lr"><flowRegion
         id="flowRegion3380"><rect
           id="rect3382"
           width="20"
           height="22.857143"
           x="677.14288"
           y="1211.0461" /></flowRegion><flowPara
         id="flowPara3384" /></flowRoot>    <g
       id="g3439"
       transform="translate(16.985768,38.867887)">
      <g
         id="g3420">
        <path
           inkscape:connector-curvature="0"
           style="fill:#8b0000;stroke:none"
           d="m 452.32652,21.736677 c 3.385,125.245423 -66.28801,178.505443 -287.72598,302.958533 130.32294,22.00258 182.04767,67.98098 182.04767,67.98098 0,0 166.60851,-105.21609 186.91858,-191.53389"
           id="path2899"
           sodipodi:nodetypes="cccc" />
        <path
           inkscape:connector-curvature="0"
           style="fill:#8b0000"
           d="M 745.13,370.39286 C 440.47895,216.37485 460.78904,80.974386 425.24642,-40.886036 389.7038,-162.74644 200.14315,-369.23215 200.14315,-369.23215 c 0,0 292.80348,179.40562 368.96625,363.888751 C 645.27215,179.13972 894.07051,262.0725 894.07051,262.0725"
           id="path2897" />
        <path
           inkscape:connector-curvature="0"
           sodipodi:nodetypes="csscsccccc"
           id="path3094"
           d="m 527.69331,-17.282064 c 28.094,31.171979 89.14787,31.374379 94.43609,35.843246 5.28813,4.468908 -4.31511,27.470092 29.89367,67.524759 34.20874,40.054729 48.90249,49.708729 55.22413,61.694949 -18.11994,-11.74735 -13.58459,15.58248 -15.45773,26.31537 -1.87314,10.73286 -24.1819,137.94638 -54.32396,204.88738 -8.92023,-67.33448 2.38878,-111.29942 -12.11216,-109.94143 18.38218,-50.09609 0.53566,-67.24679 -9.38179,-70.44203 25.34428,-52.31521 -9.06718,-67.27801 -9.06718,-67.27801 C 596.94685,65.41033 464.28887,-3.7633557 464.28887,-3.7633557"
           style="fill:#000000;fill-opacity:1;stroke:#ffffff;stroke-width:2.51324296;stroke-linecap:butt;stroke-linejoin:miter;stroke-opacity:1" />
        <path
           inkscape:connector-curvature="0"
           id="path3039"
           style="fill:#000000;fill-opacity:1;stroke:#ffffff;stroke-width:2.51324296;stroke-linecap:butt;stroke-linejoin:miter;stroke-opacity:1"
           d="m 767.38732,347.65678 c 8.20337,-13.2516 7.57234,-16.40677 7.57234,-16.40677 0,0 -6.94131,5.04823 -11.98956,5.04823 m 29.02735,31.55148 c 3.78618,-14.51367 0.63105,-20.19294 0.63105,-20.19294 0,0 -7.57236,14.51366 -10.09648,15.14469 -2.52413,0.63105 -5.04823,-2.52411 -5.04823,-2.52411 0,0 7.57235,-6.3103 6.94131,-15.77572 0,0 -8.83441,8.83441 -13.25162,9.46542 m 17.03779,-39.1238 c -15.14469,10.72749 -15.14469,5.67928 -15.14469,5.67928 l 5.67926,-11.98956 m 45.4341,25.24115 c -8.83441,13.2516 -18.29985,11.35852 -18.29985,11.35852 l 4.41721,-17.6688 c 0,0 -6.94135,11.98954 -11.98956,11.98954 l 5.67925,-17.66882 c 0,0 -8.20336,12.62061 -12.62056,11.98956 l 5.04823,-15.77572" />
        <path
           inkscape:connector-curvature="0"
           style="fill:none;stroke:#ffffff;stroke-width:2.51324296;stroke-linecap:butt;stroke-linejoin:miter;stroke-opacity:1"
           d="M 639.75193,172.38576 C 655.53825,166.62 683.16425,145.4789 683.16425,145.4789"
           id="path3100" />
        <path
           inkscape:connector-curvature="0"
           id="path3102"
           d="m 635.3599,167.82992 c 12.89181,-4.39569 35.45249,-20.51323 35.45249,-20.51323"
           style="fill:none;stroke:#ffffff;stroke-width:2.51324296;stroke-linecap:butt;stroke-linejoin:miter;stroke-opacity:1" />
        <path
           inkscape:connector-curvature="0"
           id="path3106"
           d="m 672.06973,133.44432 c -13.88317,-5.93523 -74.53071,-16.48679 -74.53071,-16.48679"
           style="fill:none;stroke:#ffffff;stroke-width:2.51324296;stroke-linecap:butt;stroke-linejoin:miter;stroke-opacity:1" />
        <path
           inkscape:connector-curvature="0"
           id="path3010"
           style="fill:#000000;fill-opacity:1;stroke:#ffffff;stroke-width:2.51324296;stroke-linecap:butt;stroke-linejoin:miter;stroke-opacity:1"
           d="M 702.91403,296.18117 C 575.13155,240.81901 523.13588,129.24666 470.45601,12.87129 417.77612,-103.50406 446.39034,-214.40641 256.53333,-376.04599 472.52873,-271.40491 466.73219,-150.25304 521.5368,-36.243007 576.34137,77.767047 642.29384,200.98094 718.20567,224.14573"
           sodipodi:nodetypes="czczc" />
        <path
           inkscape:connector-curvature="0"
           sodipodi:nodetypes="cccc"
           id="path2886"
           d="m 680.56149,226.62952 c -21.84326,43.40382 32.23313,17.73994 31.25803,-13.20781 -0.9751,-30.94773 -27.94227,-72.22148 -27.94227,-72.22148 0,0 18.52747,42.02549 -3.31576,85.42929 z"
           style="fill:#000000;fill-opacity:1;stroke:#ffffff;stroke-width:2.17862701;stroke-linecap:butt;stroke-linejoin:miter;stroke-opacity:1" />
        <path
           inkscape:connector-curvature="0"
           style="fill:#000000;fill-opacity:1;stroke:#ffffff;stroke-width:2.77070427;stroke-linecap:butt;stroke-linejoin:miter;stroke-opacity:1"
           d="m 695.90184,247.54513 c -36.28303,3.95815 -81.14204,-8.57599 -97.63433,-14.5132 42.87993,50.13653 125.34138,73.88543 125.34138,73.88543"
           id="path2888" />
        <path
           inkscape:connector-curvature="0"
           style="fill:#000000;fill-opacity:1;stroke:#ffffff;stroke-width:2.51324296;stroke-opacity:1"
           d="m 697.11966,265.56671 c 0,0 53.5879,-2.74031 60.77028,35.08831 7.18238,37.82859 21.24227,61.09606 30.47167,62.77528 9.2294,1.67924 24.122,-1.09045 24.122,-1.09045 -34.54266,23.2691 -36.17877,36.64821 -42.81225,58.5236 8.89224,-35.35693 -4.3401,-57.48153 -10.96437,-64.70538 -6.6242,-7.22393 -5.88703,-12.46129 -10.28879,-15.89399 -4.40178,-3.43268 -36.33004,-14.80749 -46.01115,-48.38798 -9.68111,-33.58048 -5.28739,-26.30939 -5.28739,-26.30939 z"
           id="path2873"
           sodipodi:nodetypes="ccsccsszc" />
        <path
           inkscape:connector-curvature="0"
           style="fill:#000000;fill-opacity:1;stroke:#ffffff;stroke-width:2.51324296;stroke-linecap:butt;stroke-linejoin:miter;stroke-opacity:1"
           d="m 699.87547,217.45768 c -32.02953,46.00092 33.91398,25.52019 37.8521,-9.98077 3.93815,-35.50097 -20.12068,-87.03681 -20.12068,-87.03681 0,0 14.29812,51.01668 -17.73142,97.01758 z"
           id="path2881"
           sodipodi:nodetypes="cccc" />
        <path
           inkscape:connector-curvature="0"
           style="fill:#000000;fill-opacity:1;stroke:#ffffff;stroke-width:2.51324296;stroke-opacity:1"
           d="m 704.39282,226.53943 c -14.76042,12.4712 -7.68835,18.15076 -17.20045,36.2107 20.1463,0.0755 57.78401,24.52113 59.98289,27.19708 4.39773,5.3519 24.18414,18.72414 35.32064,26.16497 11.1365,7.44088 33.6777,18.12166 36.88939,20.15134 3.21171,2.02969 14.55306,10.71586 3.95055,45.3949 12.17009,-15.43182 25.55844,-42.89503 17.79251,-74.55223 0,0 0.0391,6.06891 -6.35321,11.91681 -6.39236,5.84794 -14.28488,-14.91679 -14.27685,-18.7552 0.008,-3.83838 13.37629,-21.7056 11.54861,-40.59026 -1.31264,7.5703 -10.52309,21.55598 -17.11626,24.23941 -6.59317,2.6834 -7.6215,-1.62404 -8.54746,-5.30872 -0.92591,-3.68477 3.42867,-2.4826 1.38002,-14.93579 0,0 -1.45825,2.79795 -3.85454,7.66869 -2.39626,4.87083 -15.24308,-3.24794 -35.29242,-39.59933 -9.56491,9.88715 -19.06912,-0.77472 -11.24349,-19.74188 7.82562,-18.96721 9.40761,-57.14819 -0.82875,-73.82105 -1.83856,37.07267 -12.83906,55.51723 -21.19723,62.48179 -8.35819,6.96455 -15.9468,17.9741 -30.95395,25.87877 z"
           id="path2871"
           sodipodi:nodetypes="cccssccsscsscscscsc" />
        <path
           inkscape:connector-curvature="0"
           style="fill-opacity:1;stroke:#ffffff;stroke-width:2.51324296;stroke-linecap:butt;stroke-linejoin:miter;stroke-opacity:1"
           d="m 737.31347,243.60622 c 15.65682,3.81943 19.61662,20.11506 19.61662,20.11506 0,0 3.33431,-6.94365 5.46242,-7.61346 -11.23491,-9.98273 -12.05035,-16.88321 -12.05035,-16.88321 -3.89766,3.51902 -13.02869,4.38161 -13.02869,4.38161 z"
           id="path2875" />
        <path
           inkscape:connector-curvature="0"
           style="fill:#000000;fill-opacity:1;stroke:#ffffff;stroke-width:2.51324296;stroke-linecap:butt;stroke-linejoin:miter;stroke-opacity:1"
           d="m 509.01738,38.406831 c -9.35258,46.897507 28.095,118.364099 27.53096,126.561119 -0.56412,8.197 -32.92624,-2.81459 -46.10912,55.23622 -13.18285,58.0508 -17.72135,107.31668 -26.83137,125.65077 -1.60047,-37.94463 -31.09506,-12.69004 -45.90466,-8.89381 -14.80962,3.79619 -183.66824,58.76705 -292.33524,51.52039 74.65794,-58.44587 138.53306,-67.90488 124.06441,-91.31993 77.63582,-1.57096 82.89989,-42.54842 78.05947,-61.2267 86.50329,8.65842 74.45892,-58.6556 74.45892,-58.6556 71.99828,-59.26446 65.99433,-206.385355 65.99433,-206.385355"
           id="path2996"
           sodipodi:nodetypes="csscsccccc" />
        <path
           inkscape:connector-curvature="0"
           style="fill:none;stroke:#ffffff;stroke-width:2.51324296;stroke-linecap:butt;stroke-linejoin:miter;stroke-opacity:1"
           d="m 555.56936,9.042895 c 32.1576,13.540038 58.39146,14.386294 58.39146,14.386294 12.01592,41.882811 20.8544,62.671636 58.39145,93.934071"
           id="path3096"
           sodipodi:nodetypes="ccc" />
        <path
           inkscape:connector-curvature="0"
           style="fill:none;stroke:#ffffff;stroke-width:2.51324296;stroke-linecap:butt;stroke-linejoin:miter;stroke-opacity:1"
           d="m 690.96982,140.21207 c -8.46254,5.07754 -3.95963,20.30806 -5.92377,30.46512 -1.41796,7.33272 -4.23126,22.00258 -4.23126,22.00258"
           id="path3098"
           sodipodi:nodetypes="cac" />
      </g>
      <g
         transform="translate(0,2.3760766e-5)"
         id="g3414">
        <g
           style="font-style:normal;font-variant:normal;font-weight:bold;font-stretch:normal;font-size:147.06175232px;line-height:125%;font-family:Nevis;-inkscape-font-specification:'Nevis Bold';text-align:start;writing-mode:lr-tb;text-anchor:start;fill:#000000;fill-opacity:1;stroke:none"
           id="text2904">
          <path
             d="m 137.61054,533.87378 q -22.83478,-0.0718 -38.3452,-15.43861 -15.438611,-15.43861 -15.438611,-38.63244 0.07181,-22.69116 15.510419,-38.12978 15.438612,-15.51042 38.273392,-15.51042 23.05021,0 39.56593,14.3615 l -14.3615,15.72585 q -10.98654,-8.6169 -25.20443,-8.6169 -14.50511,0.0718 -23.40924,9.04774 -8.83232,8.97594 -8.83232,22.9784 0.0718,15.00777 8.97593,23.84009 8.90413,8.83232 23.40925,8.83232 11.63281,0 17.88006,-4.59568 l 0,-18.45453 -14.36149,0.0718 0,-20.1061 35.90374,0 0,50.26525 q -16.44391,14.3615 -39.56593,14.3615 z"
             style=""
             id="path3667" />
          <path
             d="m 198.79053,533.87378 0,-107.71125 21.54225,0 0,43.0845 50.19344,0 0,-43.1563 21.54225,0 0,107.71124 -21.54225,0.0718 0,-44.52065 -50.19344,0 0,44.52065 -21.54225,0 z"
             style=""
             id="path3669" />
          <path
             d="m 315.11866,533.87378 0,-107.63944 79.13186,-0.0718 0,20.1061 -57.58961,0 0,22.9784 43.15631,0 0,20.03429 -43.15631,0 0,24.48636 57.446,0 0,20.1061 -78.98825,0 z"
             style=""
             id="path3671" />
          <path
             d="m 415.93641,533.87378 0,-107.71125 7.18075,0 67.49905,67.49905 0,-67.49905 21.54224,0 0,107.71125 -7.89882,0 -66.78097,-66.78097 0,66.78097 -21.54225,0 z"
             style=""
             id="path3673" />
          <path
             d="m 529.10502,426.16253 0,20.1061 35.90374,0 0,87.60515 21.54225,0 0,-87.60515 35.90375,0 0,-20.1061 -93.34974,0 z"
             style=""
             id="path3675" />
        </g>
        <g
           style="font-style:normal;font-variant:normal;font-weight:bold;font-stretch:normal;font-size:147.06175232px;line-height:125%;font-family:Nevis;-inkscape-font-specification:'Nevis Bold';text-align:start;writing-mode:lr-tb;text-anchor:start;fill:#8b0000;fill-opacity:1;stroke:none"
           id="text2908">
          <path
             d="m 654.88033,533.87378 0,-107.71125 75.75691,0 0,20.1061 -54.21466,0 0,22.9784 39.99677,0 0,20.03429 -39.99677,0 0,44.59246 -21.54225,0 z"
             style=""
             id="path3660" />
          <path
             d="m 746.29127,533.87378 0,-107.71125 46.9621,0 q 37.69894,0 37.69894,31.02084 0,32.16976 -37.62713,32.16976 l -25.49166,0 0,44.52065 -21.54225,0 z m 21.54225,-64.62675 30.15915,0 q 12.99715,-0.21542 13.35619,-11.84823 -0.35904,-10.62751 -13.14077,-11.05836 l -30.37457,0 0,22.90659 z"
             style=""
             id="path3662" />
          <path
             d="m 895.0764,533.87378 q -22.83478,-0.0718 -38.3452,-15.43861 -15.43861,-15.43861 -15.43861,-38.63244 0.0718,-22.69116 15.51042,-38.12978 15.43861,-15.51042 38.27339,-15.51042 23.05021,0 39.56593,14.3615 l -14.3615,15.72585 q -10.98654,-8.6169 -25.20443,-8.6169 -14.50511,0.0718 -23.40924,9.04774 -8.83232,8.97594 -8.83232,22.9784 0.0718,15.00777 8.97593,23.84009 8.90413,8.83232 23.40925,8.83232 11.63281,0 17.88006,-4.59568 l 0,-18.45453 -14.3615,0.0718 0,-20.1061 35.90375,0 0,50.26525 q -16.44391,14.3615 -39.56593,14.3615 z"
             style=""
             id="path3664" />
        </g>
      </g>
      <g
         style="font-style:normal;font-variant:normal;font-weight:normal;font-stretch:normal;font-size:55.1649437px;line-height:125%;font-family:Nevis;-inkscape-font-specification:'Nevis, Normal';text-align:start;letter-spacing:0px;word-spacing:0px;writing-mode:lr-tb;text-anchor:start;fill:#000000;fill-opacity:1;stroke:none;stroke-width:1px;stroke-linecap:butt;stroke-linejoin:miter;stroke-opacity:1"
         id="text3622">
        <path
           d="m 83.755001,593.8075 0,-40.40402 17.616149,0 q 14.1414,0 14.1414,11.63636 0,12.06733 -14.11446,12.06733 l -9.562287,0 0,16.70033 -8.080802,0 z m 8.080802,-24.24241 11.313127,0 q 4.87541,-0.0808 5.01009,-4.44444 -0.13468,-3.98653 -4.92929,-4.14815 l -11.393927,0 0,8.59259 z"
           style=""
           id="path3615" />
        <path
           d="m 129.65396,569.56509 11.31312,0 q 4.87542,-0.0808 5.0101,-4.44444 -0.13468,-3.98653 -4.92929,-4.14815 l -11.39393,0 0,8.59259 z m 16.24241,6.62626 10.07407,17.61615 -9.26599,0 -9.67003,-16.70033 -7.38046,0 0,16.70033 -8.08081,0 0,-40.40402 17.61615,0 q 14.14141,0 14.14141,11.63636 0,8.7542 -7.43434,11.15151 z"
           style=""
           id="path3617" />
        <path
           d="m 160.14552,593.8075 0,-40.37708 29.68348,-0.0269 0,7.54209 -21.60268,0 0,8.61952 16.18854,0 0,7.51514 -16.18854,0 0,9.18518 21.54881,0 0,7.54209 -29.62961,0 z"
           style=""
           id="path3619" />
        <path
           d="m 211.10844,553.40348 q 5.62963,0 8.72727,1.3468 3.09764,1.3468 5.79124,4.04041 l -5.3872,5.3872 q -2.6936,-3.23232 -7.54208,-3.23232 -4.84848,0 -6.19528,2.28956 -1.3468,2.28956 0,3.90572 1.3468,1.61616 6.19528,2.42424 5.11784,0.53872 9.29292,3.367 4.17508,2.82828 4.17508,9.02356 0,4.84848 -4.47138,8.35016 -4.44444,3.50169 -10.37036,3.50169 -5.62962,0 -9.40066,-1.61617 -3.77105,-1.61616 -6.46465,-4.30976 l 5.3872,-5.3872 q 2.69361,3.23232 9.15825,3.77104 5.3872,0 6.70706,-2.28956 1.3468,-2.28956 0,-4.57912 -1.31986,-2.28956 -6.70706,-2.82828 -4.84848,-0.53872 -8.88888,-2.96296 -4.04041,-2.42424 -4.04041,-8.35016 0,-5.36027 4.57913,-8.59259 4.60605,-3.25926 9.45453,-3.25926 z"
           style=""
           id="path3621" />
        <path
           d="m 233.19596,593.8075 0,-40.37708 29.68348,-0.0269 0,7.54209 -21.60268,0 0,8.61952 16.18855,0 0,7.51514 -16.18855,0 0,9.18518 21.54881,0 0,7.54209 -29.62961,0 z"
           style=""
           id="path3623" />
        <path
           d="m 271.01413,593.8075 0,-40.40402 2.6936,0 25.31984,25.31985 0,-25.31985 8.08081,0 0,40.40402 -2.96297,0 -25.05048,-25.05049 0,25.05049 -8.0808,0 z"
           style=""
           id="path3625" />
        <path
           d="m 313.46528,553.40348 0,7.54209 13.468,0 0,32.86193 8.08081,0 0,-32.86193 13.468,0 0,-7.54209 -35.01681,0 z"
           style=""
           id="path3627" />
        <path
           d="m 354.408,593.8075 0,-40.37708 29.68348,-0.0269 0,7.54209 -21.60268,0 0,8.61952 16.18854,0 0,7.51514 -16.18854,0 0,9.18518 21.54881,0 0,7.54209 -29.62961,0 z"
           style=""
           id="path3629" />
        <path
           d="m 392.11842,593.8075 0,-40.37708 29.68348,-0.0269 0,7.54209 -21.60268,0 0,8.61952 16.18854,0 0,7.51514 -16.18854,0 0,9.18518 21.54881,0 0,7.54209 -29.62961,0 z"
           style=""
           id="path3631" />
        <path
           d="m 438.01738,569.56509 11.31313,0 q 4.87541,-0.0808 5.01009,-4.44444 -0.13468,-3.98653 -4.92929,-4.14815 l -11.39393,0 0,8.59259 z m 16.24242,6.62626 10.07406,17.61615 -9.26598,0 -9.67003,-16.70033 -7.38047,0 0,16.70033 -8.0808,0 0,-40.40402 17.61615,0 q 14.1414,0 14.1414,11.63636 0,8.7542 -7.43433,11.15151 z"
           style=""
           id="path3633" />
        <path
           d="m 466.56953,553.40348 0,7.54209 13.468,0 0,32.86193 8.0808,0 0,-32.86193 13.46801,0 0,-7.54209 -35.01681,0 z"
           style=""
           id="path3635" />
        <path
           d="m 526.55602,553.40348 0,40.40402 29.62961,0 0,-7.54209 -21.5488,0 0,-32.86193 -8.08081,0 z"
           style=""
           id="path3637" />
        <path
           d="m 562.67722,593.8075 0,-40.37708 29.68349,-0.0269 0,7.54209 -21.60268,0 0,8.61952 16.18854,0 0,7.51514 -16.18854,0 0,9.18518 21.5488,0 0,7.54209 -29.62961,0 z"
           style=""
           id="path3639" />
        <path
           d="m 613.64013,553.40348 q 5.62962,0 8.72727,1.3468 3.09764,1.3468 5.79124,4.04041 l -5.3872,5.3872 q -2.69361,-3.23232 -7.54209,-3.23232 -4.84848,0 -6.19528,2.28956 -1.3468,2.28956 0,3.90572 1.3468,1.61616 6.19528,2.42424 5.11784,0.53872 9.29293,3.367 4.17508,2.82828 4.17508,9.02356 0,4.84848 -4.47138,8.35016 -4.44444,3.50169 -10.37036,3.50169 -5.62963,0 -9.40067,-1.61617 -3.77104,-1.61616 -6.46464,-4.30976 l 5.3872,-5.3872 q 2.6936,3.23232 9.15824,3.77104 5.3872,0 6.70707,-2.28956 1.3468,-2.28956 0,-4.57912 -1.31987,-2.28956 -6.70707,-2.82828 -4.84848,-0.53872 -8.88888,-2.96296 -4.0404,-2.42424 -4.0404,-8.35016 0,-5.36027 4.57912,-8.59259 4.60606,-3.25926 9.45454,-3.25926 z"
           style=""
           id="path3641" />
        <path
           d="m 648.98016,553.40348 q 5.62962,0 8.72726,1.3468 3.09764,1.3468 5.79124,4.04041 l -5.3872,5.3872 q -2.6936,-3.23232 -7.54208,-3.23232 -4.84848,0 -6.19528,2.28956 -1.3468,2.28956 0,3.90572 1.3468,1.61616 6.19528,2.42424 5.11784,0.53872 9.29292,3.367 4.17508,2.82828 4.17508,9.02356 0,4.84848 -4.47137,8.35016 -4.44444,3.50169 -10.37037,3.50169 -5.62962,0 -9.40066,-1.61617 -3.77104,-1.61616 -6.46464,-4.30976 l 5.3872,-5.3872 q 2.6936,3.23232 9.15824,3.77104 5.3872,0 6.70707,-2.28956 1.3468,-2.28956 0,-4.57912 -1.31987,-2.28956 -6.70707,-2.82828 -4.84848,-0.53872 -8.88888,-2.96296 -4.0404,-2.42424 -4.0404,-8.35016 0,-5.36027 4.57912,-8.59259 4.60605,-3.25926 9.45454,-3.25926 z"
           style=""
           id="path3643" />
        <path
           d="m 671.06773,593.8075 0,-40.37708 29.68348,-0.0269 0,7.54209 -21.60268,0 0,8.61952 16.18854,0 0,7.51514 -16.18854,0 0,9.18518 21.54881,0 0,7.54209 -29.62961,0 z"
           style=""
           id="path3645" />
        <path
           d="m 708.88586,593.8075 0,-40.40402 2.6936,0 25.31985,25.31985 0,-25.31985 8.0808,0 0,40.40402 -2.96296,0 -25.05049,-25.05049 0,25.05049 -8.0808,0 z"
           style=""
           id="path3647" />
        <path
           d="m 761.46495,569.56509 11.31313,0 q 4.87541,-0.0808 5.01009,-4.44444 -0.13468,-3.98653 -4.92929,-4.14815 l -11.39393,0 0,8.59259 z m 16.24242,6.62626 10.07406,17.61615 -9.26598,0 -9.67003,-16.70033 -7.38047,0 0,16.70033 -8.0808,0 0,-40.40402 17.61615,0 q 14.1414,0 14.1414,11.63636 0,8.7542 -7.43433,11.15151 z"
           style=""
           id="path3649" />
        <path
           d="m 791.95652,593.8075 0,-40.37708 29.68348,-0.0269 0,7.54209 -21.60268,0 0,8.61952 16.18854,0 0,7.51514 -16.18854,0 0,9.18518 21.54881,0 0,7.54209 -29.62961,0 z"
           style=""
           id="path3651" />
        <path
           d="m 829.66691,593.8075 0,-40.37708 29.68348,-0.0269 0,7.54209 -21.60268,0 0,8.61952 16.18854,0 0,7.51514 -16.18854,0 0,9.18518 21.54881,0 0,7.54209 -29.62961,0 z"
           style=""
           id="path3653" />
        <path
           d="m 867.56591,553.40348 8.0808,0 0,16.16161 13.46801,-16.16161 9.07743,0 -15.81143,18.85521 19.12456,21.54881 -10.50504,0 -15.35353,-17.45454 0,17.45454 -8.0808,0 0,-40.40402 z"
           style=""
           id="path3655" />
        <path
           d="m 919.52544,553.40348 q 5.62963,0 8.72727,1.3468 3.09764,1.3468 5.79124,4.04041 l -5.3872,5.3872 q -2.6936,-3.23232 -7.54208,-3.23232 -4.84848,0 -6.19528,2.28956 -1.3468,2.28956 0,3.90572 1.3468,1.61616 6.19528,2.42424 5.11784,0.53872 9.29292,3.367 4.17508,2.82828 4.17508,9.02356 0,4.84848 -4.47138,8.35016 -4.44444,3.50169 -10.37036,3.50169 -5.62962,0 -9.40066,-1.61617 -3.77105,-1.61616 -6.46465,-4.30976 l 5.3872,-5.3872 q 2.69361,3.23232 9.15825,3.77104 5.3872,0 6.70706,-2.28956 1.3468,-2.28956 0,-4.57912 -1.31986,-2.28956 -6.70706,-2.82828 -4.84848,-0.53872 -8.88889,-2.96296 -4.0404,-2.42424 -4.0404,-8.35016 0,-5.36027 4.57913,-8.59259 4.60605,-3.25926 9.45453,-3.25926 z"
           style=""
           id="path3657" />
      </g>
      <g
         style="font-style:normal;font-variant:normal;font-weight:normal;font-stretch:normal;font-size:176.46595764px;line-height:125%;font-family:Nevis;-inkscape-font-specification:'Nevis, Normal';text-align:start;letter-spacing:0px;word-spacing:0px;writing-mode:lr-tb;text-anchor:start;fill:#000000;fill-opacity:1;stroke:none;stroke-width:1px;stroke-linecap:butt;stroke-linejoin:miter;stroke-opacity:1"
         id="text3386">
        <path
           d="m 83.748337,742.67084 0,-129.24753 25.849503,0 0,51.69901 60.22935,0 0,-51.78518 25.84951,0 0,129.24753 -25.84951,0.0862 0,-53.42231 -60.22935,0 0,53.42231 -25.849503,0 z"
           style=""
           id="path3600" />
        <path
           d="m 216.87329,742.67084 51.69901,-129.24753 25.84951,0 51.61284,129.16136 -27.48664,0.0862 -7.75485,-19.81796 -58.59221,0 -7.75485,19.81796 -27.57281,0 z m 65.31309,-94.78152 -19.64563,49.11406 38.77426,0 -19.12863,-49.11406 z"
           style=""
           id="path3602" />
        <path
           d="m 407.38415,613.42331 q 18.00849,0 27.91746,4.30825 9.90898,4.30825 18.52548,12.92475 l -17.233,17.23301 q -8.6165,-10.33981 -24.12621,-10.33981 -15.5097,0 -19.81795,7.32403 -4.30825,7.32403 0,12.49393 4.30825,5.1699 19.81795,7.75485 16.37136,1.7233 29.72693,10.77063 13.35558,9.04733 13.35558,28.86528 0,15.5097 -14.30339,26.71116 -14.21723,11.20145 -33.17353,11.20145 -18.00849,0 -30.0716,-5.1699 -12.0631,-5.1699 -20.6796,-13.78641 l 17.233,-17.233 q 8.61651,10.3398 29.29611,12.0631 17.233,0 21.45509,-7.32402 4.30825,-7.32403 0,-14.64806 -4.22209,-7.32402 -21.45509,-9.04732 -15.5097,-1.7233 -28.43446,-9.47816 -12.92475,-7.75485 -12.92475,-26.71115 0,-17.14684 14.64805,-27.48664 14.73422,-10.42597 30.24393,-10.42597 z"
           style=""
           id="path3604" />
        <path
           d="m 478.64264,613.42331 25.8495,0 0,51.69901 43.08251,-51.69901 29.03761,0 -50.57886,60.31551 61.17716,68.93202 -33.60436,0 -49.11406,-55.83493 0,55.83493 -25.8495,0 0,-129.24753 z"
           style=""
           id="path3606" />
        <path
           d="m 602.46178,742.67084 0,-129.16137 94.95385,-0.0862 0,24.1262 -69.10434,0 0,27.57281 51.78517,0 0,24.04004 -51.78517,0 0,29.38227 68.93201,0 0,24.12621 -94.78152,0 z"
           style=""
           id="path3608" />
        <path
           d="m 723.69592,613.42331 0,129.24753 94.78152,0 0,-24.12621 -68.93202,0 0,-105.12132 -25.8495,0 z"
           style=""
           id="path3610" />
        <path
           d="m 839.84637,613.42331 0,129.24753 94.78152,0 0,-24.12621 -68.93201,0 0,-105.12132 -25.84951,0 z"
           style=""
           id="path3612" />
      </g>
      <g
         style="font-style:normal;font-variant:normal;font-weight:normal;font-stretch:normal;font-size:58.88162613px;line-height:125%;font-family:Nevis;-inkscape-font-specification:'Nevis, Normal';text-align:start;letter-spacing:0px;word-spacing:0px;writing-mode:lr-tb;text-anchor:start;fill:#000000;fill-opacity:1;stroke:none;stroke-width:1px;stroke-linecap:butt;stroke-linejoin:miter;stroke-opacity:1"
         id="text3406">
        <path
           d="m 121.16874,805.35547 8.62524,0 11.50032,-43.12619 -9.20026,0 -7.4752,29.32581 -7.47521,-29.32581 -8.91275,0 -7.76271,29.32581 -7.503959,-29.32581 -9.200254,0 11.529069,43.12619 8.625234,0 8.62524,-31.62587 8.62524,31.62587 z"
           style=""
           id="path3559" />
        <path
           d="m 167.11251,805.35547 q -9.20025,0 -15.38167,-6.18142 -6.18142,-6.21017 -6.18142,-15.38168 0,-9.20025 6.18142,-15.38167 6.18142,-6.18142 15.38167,-6.18142 9.20025,0 15.38168,6.18142 6.18142,6.18142 6.18142,15.38167 0,9.20026 -6.18142,15.38168 -6.18143,6.18142 -15.38168,6.18142 z m 0.0288,-8.05022 q 5.72141,0 9.31526,-3.88136 3.59385,-3.88136 3.59385,-9.63152 0,-5.75016 -3.59385,-9.63151 -3.59385,-3.88136 -9.37276,-3.88136 -5.72141,0 -9.31526,3.88136 -3.59385,3.88135 -3.59385,9.63151 0,5.75016 3.59385,9.63152 3.59385,3.88136 9.37276,3.88136 z"
           style=""
           id="path3561" />
        <path
           d="m 195.00078,805.35547 0,-43.09744 31.68338,-0.0287 0,8.05022 -23.05814,0 0,9.20025 17.27923,0 0,8.02148 -17.27923,0 0,9.80402 23.00064,0 0,8.05022 -31.62588,0 z"
           style=""
           id="path3563" />
        <path
           d="m 235.36689,805.35547 0,-43.12619 2.87508,0 27.02575,27.02574 0,-27.02574 8.62524,0 0,43.12619 -3.16259,0 -26.73824,-26.73824 0,26.73824 -8.62524,0 z"
           style=""
           id="path3565" />
        <path
           d="m 296.8936,762.22928 q 6.00892,0 9.31526,1.43754 3.30634,1.43754 6.18142,4.31262 l -5.75016,5.75016 q -2.87508,-3.4501 -8.05022,-3.4501 -5.17514,0 -6.61268,2.44382 -1.43754,2.44382 0,4.16886 1.43754,1.72505 6.61268,2.58757 5.46265,0.57502 9.91902,3.59385 4.45638,3.01884 4.45638,9.63152 0,5.17514 -4.77264,8.91275 -4.74388,3.7376 -11.06905,3.7376 -6.00892,0 -10.03403,-1.72505 -4.02511,-1.72505 -6.90019,-4.60013 l 5.75016,-5.75015 q 2.87508,3.45009 9.77527,4.02511 5.75016,0 7.15895,-2.44382 1.43754,-2.44382 0,-4.88764 -1.40879,-2.44381 -7.15895,-3.01883 -5.17514,-0.57502 -9.48776,-3.16259 -4.31262,-2.58757 -4.31262,-8.91274 0,-5.72141 4.88763,-9.17151 4.91639,-3.47884 10.09153,-3.47884 z"
           style=""
           id="path3567" />
        <path
           d="m 329.20949,796.75898 0,-25.90446 7.99272,0 q 11.47157,0 11.50032,12.93785 -0.0288,12.93786 -11.50032,12.96661 l -7.99272,0 z m 7.99272,8.59649 q 20.12556,0 20.12556,-21.5631 0,-21.59184 -20.12556,-21.59184 l -16.61796,0 0,43.15494 16.61796,0 z"
           style=""
           id="path3569" />
        <path
           d="m 364.31422,805.35547 17.25048,-43.12619 8.62524,0 17.22172,43.09744 -9.1715,0.0287 -2.58757,-6.61268 -19.55054,0 -2.58757,6.61268 -9.20026,0 z m 21.7931,-31.62587 -6.55518,16.38795 12.93786,0 -6.38268,-16.38795 z"
           style=""
           id="path3571" />
        <path
           d="m 433.05736,805.35547 q -9.14275,-0.0287 -15.35292,-6.18142 -6.18142,-6.18142 -6.18142,-15.46793 0.0288,-9.08525 6.21017,-15.26667 6.18142,-6.21017 15.32417,-6.21017 9.22901,0 15.84169,5.75016 l -5.75016,6.29642 q -4.39887,-3.45009 -10.09153,-3.45009 -5.80766,0.0287 -9.37276,3.6226 -3.53635,3.59384 -3.53635,9.20025 0.0288,6.00892 3.59385,9.54526 3.5651,3.53635 9.37276,3.53635 4.65763,0 7.15895,-1.84005 l 0,-7.38895 -5.75016,0.0288 0,-8.05023 14.3754,0 0,20.12556 q -6.58393,5.75016 -15.84169,5.75016 z"
           style=""
           id="path3573" />
        <path
           d="m 486.99384,762.22928 0,-0.0288 8.59649,0 0,43.15494 -8.59649,0 0,-31.62587 -5.75016,5.75015 -5.75016,-5.75015 11.50032,-11.50032 z"
           style=""
           id="path3575" />
        <path
           d="m 518.36097,787.50123 q -3.7951,0.60376 -4.85888,2.47256 -1.43754,2.44382 0,4.88764 1.29378,2.24256 4.85888,2.41507 3.5651,-0.17251 4.88764,-2.41507 1.40878,-2.44382 0,-4.88764 -1.09253,-1.8688 -4.88764,-2.47256 z m 0,-7.90647 q 3.79511,-0.11501 4.88764,-1.98381 1.40878,-2.44381 0,-4.88763 -1.32254,-2.24256 -4.88764,-2.41507 -3.5651,0.17251 -4.85888,2.41507 -1.43754,2.44382 0,4.88763 1.06378,1.8688 4.85888,1.98381 z m 9.08525,3.91011 q 0.77627,0.2875 1.40879,0.57501 4.45637,2.01256 4.45637,8.62524 0,6.61268 -4.19761,9.63152 -4.16887,3.01883 -10.78155,3.01883 -6.55518,0 -10.7528,-3.01883 -4.16886,-3.01884 -4.16886,-9.63152 0,-6.61268 4.45637,-8.62524 0.63252,-0.28751 1.40879,-0.57501 -0.46001,-0.23001 -0.83377,-0.43127 -3.88136,-2.15631 -3.88136,-8.19397 0,-6.03767 3.7376,-9.34401 3.76636,-3.30634 10.09153,-3.30634 6.26767,0 10.00528,3.30634 3.76635,3.30634 3.76635,9.34401 0,6.03766 -3.88135,8.19397 -0.37377,0.20126 -0.83378,0.43127 z"
           style=""
           id="path3577" />
        <path
           d="m 543.74792,807.08052 -5.6064,0 15.75543,-43.2412 5.60641,0 -15.75544,43.2412 z"
           style=""
           id="path3579" />
        <path
           d="m 580.69268,805.35547 q -7.1877,0 -11.50032,-6.18142 -4.31261,-6.21017 -4.31261,-15.38168 0,-9.20025 4.31261,-15.38167 4.31262,-6.18142 11.50032,-6.18142 7.21645,0 11.50032,6.18142 4.31262,6.18142 4.31262,15.38167 0,9.20026 -4.31262,15.38168 -4.28387,6.18142 -11.50032,6.18142 z m 0.0288,-8.05022 q 2.84633,0 5.00264,-3.88136 2.15631,-3.88136 2.15631,-9.63152 0,-5.75016 -2.15631,-9.63151 -2.15631,-3.88136 -5.06014,-3.88136 -2.84633,0 -5.00264,3.88136 -2.15631,3.88135 -2.15631,9.63151 0,5.75016 2.15631,9.63152 2.15631,3.88136 5.06014,3.88136 z"
           style=""
           id="path3581" />
        <path
           d="m 619.24747,762.22928 q 6.32518,0 10.35029,3.19134 4.05386,3.16258 4.05386,9.45901 0,7.4752 -5.75016,13.68538 -5.7214,6.21017 -9.45901,8.16522 l 15.52543,0 0,8.62524 -29.06705,0 0,-8.62524 q 2.87508,0 10.9253,-7.1877 8.05022,-7.1877 9.34401,-10.20653 1.29378,-3.01883 -0.14376,-6.03767 -1.43754,-3.01883 -6.90019,-3.01883 -5.17514,0 -8.05022,3.4501 l -5.75016,-5.75016 q 2.87508,-2.87508 5.60641,-4.31262 2.73132,-1.43754 9.31525,-1.43754 z"
           style=""
           id="path3583" />
        <path
           d="m 682.44172,805.35547 q -9.20026,0 -15.38168,-6.18142 -6.18142,-6.21017 -6.18142,-15.38168 0,-9.20025 6.18142,-15.38167 6.18142,-6.18142 15.38168,-6.18142 9.20025,0 15.38167,6.18142 6.18142,6.18142 6.18142,15.38167 0,9.20026 -6.18142,15.38168 -6.18142,6.18142 -15.38167,6.18142 z m 0.0287,-8.05022 q 5.72141,0 9.31526,-3.88136 3.59385,-3.88136 3.59385,-9.63152 0,-5.75016 -3.59385,-9.63151 -3.59385,-3.88136 -9.37276,-3.88136 -5.72141,0 -9.31526,3.88136 -3.59385,3.88135 -3.59385,9.63151 0,5.75016 3.59385,9.63152 3.59385,3.88136 9.37276,3.88136 z"
           style=""
           id="path3585" />
        <path
           d="m 710.44503,805.35547 0,-43.12619 2.87508,0 18.68802,21.27559 18.71676,-21.27559 2.87508,0 0,43.12619 -8.62523,0 -0.0288,-25.01319 -12.93785,14.37539 -12.93786,-14.37539 0,25.01319 -8.62524,0 z"
           style=""
           id="path3587" />
        <path
           d="m 791.63724,762.22928 0,-0.0288 8.59649,0 0,43.15494 -8.59649,0 0,-31.62587 -5.75016,5.75015 -5.75016,-5.75015 11.50032,-11.50032 z"
           style=""
           id="path3589" />
        <path
           d="m 823.0044,787.50123 q -3.7951,0.60376 -4.85888,2.47256 -1.43754,2.44382 0,4.88764 1.29379,2.24256 4.85888,2.41507 3.5651,-0.17251 4.88764,-2.41507 1.40879,-2.44382 0,-4.88764 -1.09253,-1.8688 -4.88764,-2.47256 z m 0,-7.90647 q 3.79511,-0.11501 4.88764,-1.98381 1.40879,-2.44381 0,-4.88763 -1.32254,-2.24256 -4.88764,-2.41507 -3.56509,0.17251 -4.85888,2.41507 -1.43754,2.44382 0,4.88763 1.06378,1.8688 4.85888,1.98381 z m 9.08525,3.91011 q 0.77628,0.2875 1.40879,0.57501 4.45638,2.01256 4.45638,8.62524 0,6.61268 -4.19762,9.63152 -4.16886,3.01883 -10.78155,3.01883 -6.55518,0 -10.75279,-3.01883 -4.16887,-3.01884 -4.16887,-9.63152 0,-6.61268 4.45637,-8.62524 0.63252,-0.28751 1.40879,-0.57501 -0.46001,-0.23001 -0.83377,-0.43127 -3.88136,-2.15631 -3.88136,-8.19397 0,-6.03767 3.73761,-9.34401 3.76635,-3.30634 10.09152,-3.30634 6.26768,0 10.00528,3.30634 3.76635,3.30634 3.76635,9.34401 0,6.03766 -3.88135,8.19397 -0.37376,0.20126 -0.83378,0.43127 z"
           style=""
           id="path3591" />
        <path
           d="m 845.94751,801.33036 q 0,1.72505 1.15003,2.87508 1.15003,1.15003 3.16259,1.15003 2.01255,0 3.16258,-1.15003 1.15004,-1.15003 1.15004,-2.87508 0,-1.72505 -1.15004,-2.87508 -1.15003,-1.17878 -3.22008,-1.17878 -1.95506,0 -3.10509,1.17878 -1.15003,1.15003 -1.15003,2.87508 z m 0,-20.58557 q 0,1.72505 1.15003,2.87508 1.15003,1.15003 3.16259,1.15003 2.01255,0 3.16258,-1.15003 1.15004,-1.15003 1.15004,-2.87508 0,-1.72505 -1.15004,-2.87508 -1.15003,-1.17878 -3.22008,-1.17878 -1.95506,0 -3.10509,1.17878 -1.15003,1.15003 -1.15003,2.87508 z"
           style=""
           id="path3593" />
        <path
           d="m 889.76371,783.50487 q 0.77627,0.2875 1.40879,0.57501 4.45637,2.01256 4.45637,8.62524 0,5.17514 -4.77263,8.91275 -4.74388,3.7376 -11.06906,3.7376 -6.00891,0 -10.03403,-1.72505 -4.02511,-1.72505 -6.90019,-4.60013 l 5.75016,-5.75015 q 2.87508,3.45009 9.77527,4.02511 5.75016,0 7.15895,-2.44382 1.43754,-2.44382 0,-4.88764 -1.40879,-2.44381 -10.00528,-2.73132 l 0,-7.76272 q 8.59649,0.57502 10.00528,-1.8688 1.43754,-2.44381 0,-4.88763 -1.40879,-2.44382 -7.15895,-2.44382 -5.46265,0 -8.33773,3.4501 l -5.75016,-5.75016 q 2.87508,-2.87508 6.18142,-4.31262 3.30635,-1.43754 9.31526,-1.43754 6.32518,0 10.49404,3.7376 4.19762,3.7376 4.19762,8.91275 0,6.03766 -3.88136,8.19397 -0.37376,0.20126 -0.83377,0.43127 z"
           style=""
           id="path3595" />
        <path
           d="m 918.802,805.35547 q -7.1877,0 -11.50032,-6.18142 -4.31262,-6.21017 -4.31262,-15.38168 0,-9.20025 4.31262,-15.38167 4.31262,-6.18142 11.50032,-6.18142 7.21645,0 11.50031,6.18142 4.31262,6.18142 4.31262,15.38167 0,9.20026 -4.31262,15.38168 -4.28386,6.18142 -11.50031,6.18142 z m 0.0287,-8.05022 q 2.84633,0 5.00264,-3.88136 2.1563,-3.88136 2.1563,-9.63152 0,-5.75016 -2.1563,-9.63151 -2.15631,-3.88136 -5.06014,-3.88136 -2.84633,0 -5.00264,3.88136 -2.15631,3.88135 -2.15631,9.63151 0,5.75016 2.15631,9.63152 2.15631,3.88136 5.06014,3.88136 z"
           style=""
           id="path3597" />
      </g>
      <g
         style="font-style:normal;font-variant:normal;font-weight:normal;font-stretch:normal;font-size:66.38059235px;line-height:125%;font-family:Nevis;-inkscape-font-specification:'Nevis, Normal';text-align:start;letter-spacing:0px;word-spacing:0px;writing-mode:lr-tb;text-anchor:start;fill:#000000;fill-opacity:1;stroke:none;stroke-width:1px;stroke-linecap:butt;stroke-linejoin:miter;stroke-opacity:1"
         id="text3410">
        <path
           d="m 83.782082,875.22882 0,-48.6186 21.197708,0 q 17.01651,0 17.01651,14.00216 0,14.52075 -16.9841,14.52075 l -11.506399,0 0,20.09569 -9.723719,0 z m 9.723719,-29.17116 13.613209,0 q 5.86664,-0.0972 6.0287,-5.34804 -0.16206,-4.79704 -5.93146,-4.99151 l -13.710449,0 0,10.33955 z"
           style=""
           id="path3522" />
        <path
           d="m 151.16746,875.22882 q -10.30714,-0.0324 -17.30822,-6.96866 -6.96867,-6.96867 -6.96867,-17.43788 0.0324,-10.24231 7.00108,-17.21098 6.96867,-7.00108 17.27581,-7.00108 10.40438,0 17.85923,6.48248 l -6.48248,7.09832 q -4.9591,-3.88949 -11.37675,-3.88949 -6.54731,0.0324 -10.56644,4.08396 -3.98673,4.05155 -3.98673,10.37197 0.0324,6.77419 4.05155,10.76092 4.01914,3.98672 10.56644,3.98672 6.54731,0 11.31193,-3.85707 l 6.48248,7.09831 q -7.42244,6.48248 -17.85923,6.48248 z"
           style=""
           id="path3524" />
        <path
           d="m 178.06975,862.23145 0,-6.45007 20.09568,0 0,6.45007 -20.09568,0 z"
           style=""
           id="path3526" />
        <path
           d="m 208.73187,826.61022 9.72372,0 0,19.44744 16.2062,-19.44744 10.92298,0 -19.02608,22.68868 23.01281,25.92992 -12.64084,0 -18.47507,-21.00323 0,21.00323 -9.72372,0 0,-48.6186 z"
           style=""
           id="path3528" />
        <path
           d="m 255.53539,826.61022 0,48.6186 35.65363,0 0,-9.07547 -25.92991,0 0,-39.54313 -9.72372,0 z"
           style=""
           id="path3530" />
        <path
           d="m 296.56948,875.22882 19.44744,-48.6186 9.72372,0 19.41502,48.58619 -10.33955,0.0324 -2.91712,-7.45485 -22.04043,0 -2.91711,7.45485 -10.37197,0 z m 24.5686,-35.65364 -7.39003,18.47507 14.58558,0 -7.19555,-18.47507 z"
           style=""
           id="path3532" />
        <path
           d="m 368.2333,826.61022 q 6.7742,0 10.50162,1.62062 3.72743,1.62062 6.96867,4.86186 l -6.48248,6.48248 q -3.24124,-3.88949 -9.07547,-3.88949 -5.83424,0 -7.45486,2.75506 -1.62062,2.75505 0,4.6998 1.62062,1.94474 7.45486,2.91711 6.15835,0.64825 11.18227,4.05155 5.02393,3.4033 5.02393,10.85816 0,5.83423 -5.38046,10.04784 -5.34805,4.21361 -12.47878,4.21361 -6.77419,0 -11.31192,-1.94474 -4.53774,-1.94475 -7.77898,-5.18599 l 6.48248,-6.48248 q 3.24124,3.88949 11.02022,4.53774 6.48248,0 8.07068,-2.75505 1.62062,-2.75506 0,-5.51011 -1.5882,-2.75506 -8.07068,-3.4033 -5.83424,-0.64825 -10.6961,-3.56537 -4.86186,-2.91711 -4.86186,-10.04784 0,-6.45007 5.51011,-10.33956 5.54252,-3.9219 11.37675,-3.9219 z"
           style=""
           id="path3534" />
        <path
           d="m 417.6298,875.22882 0,-48.6186 3.24124,0 21.06806,23.98518 21.10047,-23.98518 3.24124,0 0,48.6186 -9.72372,0 -0.0324,-28.19879 -14.58558,16.2062 -14.58558,-16.2062 0,28.19879 -9.72372,0 z"
           style=""
           id="path3536" />
        <path
           d="m 475.84247,875.22882 0,-48.58618 35.71846,-0.0324 0,9.07547 -25.99475,0 0,10.37197 19.47986,0 0,9.04306 -19.47986,0 0,11.05263 25.92992,0 0,9.07547 -35.65363,0 z"
           style=""
           id="path3538" />
        <path
           d="m 531.07318,846.05766 13.61321,0 q 5.86665,-0.0972 6.02871,-5.34804 -0.16206,-4.79704 -5.93147,-4.99151 l -13.71045,0 0,10.33955 z m 19.54468,7.97345 12.12224,21.19771 -11.14987,0 -11.63605,-20.09569 -8.881,0 0,20.09569 -9.72372,0 0,-48.6186 21.19771,0 q 17.01651,0 17.01651,14.00216 0,10.53403 -8.94582,13.41873 z"
           style=""
           id="path3540" />
        <path
           d="m 589.77202,875.22882 q -10.30714,-0.0324 -17.30822,-6.96866 -6.96866,-6.96867 -6.96866,-17.43788 0.0324,-10.24231 7.00107,-17.21098 6.96867,-7.00108 17.27581,-7.00108 10.40438,0 17.85923,6.48248 l -6.48247,7.09832 q -4.9591,-3.88949 -11.37676,-3.88949 -6.5473,0.0324 -10.56644,4.08396 -3.98672,4.05155 -3.98672,10.37197 0.0324,6.77419 4.05155,10.76092 4.01913,3.98672 10.56644,3.98672 6.5473,0 11.31193,-3.85707 l 6.48247,7.09831 q -7.42243,6.48248 -17.85923,6.48248 z"
           style=""
           id="path3542" />
        <path
           d="m 615.50745,875.22882 19.44744,-48.6186 9.72372,0 19.41503,48.58619 -10.33956,0.0324 -2.91711,-7.45485 -22.04043,0 -2.91712,7.45485 -10.37197,0 z m 24.5686,-35.65364 -7.39003,18.47507 14.58558,0 -7.19555,-18.47507 z"
           style=""
           id="path3544" />
        <path
           d="m 668.8907,826.61022 0,9.07547 16.2062,0 0,39.54313 9.72372,0 0,-39.54313 16.2062,0 0,-9.07547 -42.13612,0 z"
           style=""
           id="path3546" />
        <path
           d="m 740.13317,875.22882 q -10.37197,0 -17.34064,-6.96866 -6.96866,-7.00108 -6.96866,-17.34064 0,-10.37197 6.96866,-17.34063 6.96867,-6.96867 17.34064,-6.96867 10.37196,0 17.34063,6.96867 6.96866,6.96866 6.96866,17.34063 0,10.37197 -6.96866,17.34064 -6.96867,6.96866 -17.34063,6.96866 z m 0.0324,-9.07547 q 6.45007,0 10.50161,-4.37567 4.05155,-4.37568 4.05155,-10.85816 0,-6.48248 -4.05155,-10.85815 -4.05154,-4.37568 -10.56644,-4.37568 -6.45006,0 -10.50161,4.37568 -4.05155,4.37567 -4.05155,10.85815 0,6.48248 4.05155,10.85816 4.05155,4.37567 10.56644,4.37567 z"
           style=""
           id="path3548" />
        <path
           d="m 781.42658,846.05766 13.61321,0 q 5.86664,-0.0972 6.0287,-5.34804 -0.16206,-4.79704 -5.93147,-4.99151 l -13.71044,0 0,10.33955 z m 19.54467,7.97345 12.12224,21.19771 -11.14986,0 -11.63606,-20.09569 -8.88099,0 0,20.09569 -9.72372,0 0,-48.6186 21.19771,0 q 17.01651,0 17.01651,14.00216 0,10.53403 -8.94583,13.41873 z"
           style=""
           id="path3550" />
        <path
           d="m 822.75237,875.22882 q -0.97237,2.8847 -3.59778,3.88949 l 1.62062,2.91711 q 6.48248,-3.27365 6.48248,-11.11745 l 0,-0.22689 q 0,-1.94474 -1.29649,-3.24123 -1.2965,-1.32891 -3.63019,-1.32891 -2.20404,0 -3.50054,1.32891 -1.2965,1.29649 -1.2965,3.24123 0,1.94475 1.2965,3.24124 1.2965,1.2965 3.56536,1.2965 l 0.35654,0 z"
           style=""
           id="path3552" />
        <path
           d="m 875.94113,826.61022 q 6.77419,0 10.50162,1.62062 3.72742,1.62062 6.96866,4.86186 l -6.48248,6.48248 q -3.24124,-3.88949 -9.07547,-3.88949 -5.83423,0 -7.45485,2.75506 -1.62062,2.75505 0,4.6998 1.62062,1.94474 7.45485,2.91711 6.15836,0.64825 11.18228,4.05155 5.02392,3.4033 5.02392,10.85816 0,5.83423 -5.38046,10.04784 -5.34804,4.21361 -12.47877,4.21361 -6.77419,0 -11.31193,-1.94474 -4.53773,-1.94475 -7.77897,-5.18599 l 6.48248,-6.48248 q 3.24124,3.88949 11.02021,4.53774 6.48248,0 8.07069,-2.75505 1.62062,-2.75506 0,-5.51011 -1.58821,-2.75506 -8.07069,-3.4033 -5.83423,-0.64825 -10.69609,-3.56537 -4.86186,-2.91711 -4.86186,-10.04784 0,-6.45007 5.51011,-10.33956 5.54252,-3.9219 11.37675,-3.9219 z"
           style=""
           id="path3554" />
        <path
           d="m 917.78549,855.10072 q -4.27843,0.68066 -5.47769,2.78747 -1.62062,2.75505 0,5.51011 1.45856,2.52816 5.47769,2.72264 4.01914,-0.19448 5.51011,-2.72264 1.58821,-2.75506 0,-5.51011 -1.23167,-2.10681 -5.51011,-2.78747 z m 0,-8.91341 q 4.27844,-0.12965 5.51011,-2.23645 1.58821,-2.75506 0,-5.51011 -1.49097,-2.52817 -5.51011,-2.72264 -4.01913,0.19447 -5.47769,2.72264 -1.62062,2.75505 0,5.51011 1.19926,2.1068 5.47769,2.23645 z m 10.24232,4.40809 q 0.87514,0.32412 1.58821,0.64825 5.02392,2.26886 5.02392,9.72372 0,7.45485 -4.73221,10.85815 -4.6998,3.4033 -12.15465,3.4033 -7.39003,0 -12.12224,-3.4033 -4.69979,-3.4033 -4.69979,-10.85815 0,-7.45486 5.02392,-9.72372 0.71307,-0.32413 1.58821,-0.64825 -0.5186,-0.2593 -0.93996,-0.48619 -4.37568,-2.43093 -4.37568,-9.23753 0,-6.80661 4.21361,-10.53403 4.24603,-3.72743 11.37676,-3.72743 7.0659,0 11.27951,3.72743 4.24602,3.72742 4.24602,10.53403 0,6.8066 -4.37567,9.23753 -0.42136,0.22689 -0.93996,0.48619 z"
           style=""
           id="path3556" />
      </g>
    </g>
    <g
       transform="matrix(0.5306355,0,0,-0.5306355,570.1222,-94.960347)"
       inkscape:label="logo-new"
       id="g3499">
      <g
         id="g3501">
        <g
           clip-path="url(#clipPath3505)"
           id="g3503">
          <g
             transform="translate(2.1416,386.5537)"
             id="g3509">
            <path
               inkscape:connector-curvature="0"
               id="path3511"
               style="fill:#000000;fill-opacity:1;fill-rule:nonzero;stroke:none"
               d="m 0,0 159.742,0 -162.886,-195.099 0,-46.891 263.987,0 0,59.714 -167.631,0 164.49,195.098 0,46.889 L 0,59.711 0,0 Z m 609.684,-336.269 40.855,0 0,131.994 -40.855,0 0,-131.994 z m -72.188,103.709 c 9.177,0 16.151,-3.236 20.962,-9.68 4.808,-6.411 7.228,-15.745 7.228,-28.032 0,-12.29 -2.42,-21.653 -7.228,-28.097 -4.811,-6.409 -11.785,-9.616 -20.962,-9.616 -9.146,0 -16.153,3.237 -21.058,9.711 -4.871,6.505 -7.321,15.808 -7.321,28.002 0,12.192 2.45,21.496 7.321,28.001 4.905,6.474 11.913,9.711 21.058,9.711 m -28.378,-84.852 c 5.906,-7.543 12.414,-13.073 19.548,-16.655 7.134,-3.554 15.336,-5.345 24.639,-5.345 16.467,0 29.981,6.441 40.509,19.357 10.593,12.887 15.871,29.48 15.871,49.782 0,20.302 -5.278,36.895 -15.871,49.778 -10.526,12.918 -24.042,19.359 -40.509,19.359 -9.303,0 -17.505,-1.791 -24.639,-5.342 -7.134,-3.584 -13.642,-9.113 -19.548,-16.656 l 0,18.856 -40.855,0 0,-182.278 40.855,0 0,69.144 z m -207.514,-18.857 45.664,0 21.937,90.762 22.062,-90.762 45.664,0 34.477,131.993 -40.667,0 -22.03,-90.069 -21.968,90.069 -34.946,0 -22.062,-90.981 -21.937,90.983 -40.667,0 34.473,-131.995 z M 703.965,-12.57 c -13.388,3.236 -25.802,5.625 -37.21,7.133 -11.408,1.541 -22.281,2.294 -32.621,2.294 -26.367,0 -45.946,-4.557 -58.738,-13.639 -12.758,-9.081 -19.138,-23.035 -19.138,-41.861 0,-17.41 5.248,-30.39 15.714,-38.968 10.465,-8.549 28.755,-14.426 54.81,-17.6 l 9.333,-1.227 c 10.748,-1.319 17.944,-3.206 21.56,-5.625 3.613,-2.419 5.437,-6.097 5.437,-11 0,-5.907 -2.797,-10.339 -8.358,-13.324 -5.562,-2.985 -13.828,-4.463 -24.827,-4.463 -12.194,0 -24.199,1.321 -36.016,3.929 -11.785,2.608 -23.287,6.537 -34.508,11.785 l 0,-43.998 c 13.105,-3.144 25.864,-5.5 38.311,-7.072 12.445,-1.569 24.45,-2.355 36.078,-2.355 27.467,0 48.115,4.684 61.974,14.079 13.859,9.429 20.773,23.506 20.773,42.208 0,17.851 -4.902,30.986 -14.739,39.314 -9.773,8.359 -28.881,14.361 -57.26,18.039 l -9.334,1.353 c -9.585,1.193 -16.248,3.017 -19.956,5.467 -3.708,2.452 -5.562,5.972 -5.562,10.561 0,5.688 2.482,9.898 7.479,12.602 4.966,2.734 12.57,4.085 22.814,4.085 9.556,0 19.737,-1.319 30.485,-3.927 10.779,-2.609 21.936,-6.537 33.501,-11.785 l -0.002,43.995 z M 380.267,-117.16 c 0,-23.256 5.248,-40.948 15.776,-53.142 10.528,-12.162 25.833,-18.26 45.946,-18.26 11.281,0 21.652,2.545 31.05,7.668 9.396,5.092 18.259,13.012 26.649,23.759 l 0,-28.285 56.568,0 0,175.992 -56.568,0 0,-87.116 c 0,-16.06 -3.3,-28.63 -9.867,-37.648 -6.537,-9.021 -15.59,-13.515 -27.122,-13.515 -4.714,0 -8.895,1.005 -12.57,2.984 -3.614,2.012 -6.568,4.841 -8.831,8.518 -1.729,2.828 -2.954,7.386 -3.677,13.576 -0.725,6.254 -1.069,16.468 -1.069,30.643 0,4.87 0.032,14.487 0.126,28.943 0.094,14.425 0.157,26.431 0.157,35.983 l 0,17.632 -56.568,0 0,-107.732 z m -128.223,41.736 c 1.696,11.155 6.034,19.705 13.011,25.645 6.979,5.939 16.061,8.925 27.216,8.925 10.277,0 18.605,-3.174 24.985,-9.522 6.379,-6.35 9.585,-14.708 9.585,-25.048 l -74.797,0 z M 383.41,-94.029 c 0,27.592 -8.297,49.654 -24.891,66.122 -16.562,16.53 -38.654,24.764 -66.248,24.764 -30.358,0 -54.181,-8.233 -71.497,-24.764 -17.285,-16.468 -25.928,-39.127 -25.928,-67.945 0,-29.32 8.769,-52.105 26.272,-68.353 17.506,-16.248 42.051,-24.355 73.666,-24.355 13.168,0 26.366,1.318 39.565,3.991 13.23,2.64 26.432,6.536 39.63,11.722 l 0,43.997 c -13.043,-7.384 -25.708,-12.917 -38.059,-16.562 -12.352,-3.613 -24.419,-5.438 -36.172,-5.438 -14.614,0 -25.99,3.395 -34.13,10.214 -8.14,6.82 -12.853,17.033 -14.205,30.642 l 131.995,0 0,15.965 0.002,0 z" />
          </g>
        </g>
      </g>
    </g>
  </g>
</svg>
